<svg width="40" height="40" viewBox="0 0 40 40" fill="none" xmlns="http://www.w3.org/2000/svg">
<path d="M18.0995 3.22261L6.09955 13.0472C5.40358 13.617 5 14.469 5 15.3684V32C5 33.6569 6.34315 35 8 35H15.6151C15.9657 35 16.25 34.7158 16.25 34.3651V25.4167C16.25 23.3456 17.9289 21.6667 20 21.6667C22.0711 21.6667 23.75 23.3456 23.75 25.4167V34.3651C23.75 34.7158 24.0343 35 24.3849 35H32C33.6569 35 35 33.6569 35 32V15.3684C35 14.469 34.5964 13.617 33.9005 13.0472L21.9005 3.22261C20.7951 2.31764 19.2049 2.31763 18.0995 3.22261Z" fill="#FBC4E4"/>
</svg>
