<svg width="96" height="96" viewBox="0 0 96 96" fill="none" xmlns="http://www.w3.org/2000/svg">
<g filter="url(#filter0_d_1196_3009)">
<circle cx="48" cy="44" r="44" fill="#F4F4F4"/>
<path d="M34 23C34 21.8954 34.8954 21 36 21H60C61.1046 21 62 21.8954 62 23V47C62 48.1046 61.1046 49 60 49H36C34.8954 49 34 48.1046 34 47V23Z" stroke="#191919" stroke-width="2"/>
<circle cx="42.167" cy="29.1667" r="1.5" stroke="#191919" stroke-width="2"/>
<path d="M42.0129 65.543V70.8984H41.134V68.6602H39.716V70.8164H38.8371V65.7422H39.716V67.9102H41.134V65.543H42.0129ZM37.7121 66.1758C37.7121 68.5664 36.3059 70.2539 33.7043 71.2148L33.2707 70.5234C35.3918 69.791 36.5695 68.5605 36.7512 66.9375H33.6809V66.1758H37.7121ZM42.0129 71.3555V73.8633H36.0363V75.0703H42.4348V75.8086H35.1223V73.1484H41.1105V72.1055H35.0988V71.3555H42.0129ZM51.8613 65.5312V75.9727H50.9473V70.3125H48.9199V69.5391H50.9473V65.5312H51.8613ZM48.2871 66.5039V70.1484H44.5488V72.6797C46.3418 72.6797 47.6426 72.627 49.166 72.3398L49.2363 73.1133C47.666 73.3945 46.3184 73.4531 44.4316 73.4648H43.6348V69.3867H47.3965V67.2656H43.5996V66.5039H48.2871ZM61.909 65.5312V75.9727H60.9949V65.5312H61.909ZM58.7449 66.5039V70.207H54.8543V72.668C56.5828 72.668 58.1238 72.5918 59.9871 72.293L60.0809 73.0664C58.159 73.3711 56.577 73.4414 54.784 73.4414H53.9168V69.457H57.8191V67.2656H53.8934V66.5039H58.7449Z" fill="#191919"/>
</g>
<defs>
<filter id="filter0_d_1196_3009" x="0" y="0" width="96" height="96" filterUnits="userSpaceOnUse" color-interpolation-filters="sRGB">
<feFlood flood-opacity="0" result="BackgroundImageFix"/>
<feColorMatrix in="SourceAlpha" type="matrix" values="0 0 0 0 0 0 0 0 0 0 0 0 0 0 0 0 0 0 127 0" result="hardAlpha"/>
<feOffset dy="4"/>
<feGaussianBlur stdDeviation="2"/>
<feComposite in2="hardAlpha" operator="out"/>
<feColorMatrix type="matrix" values="0 0 0 0 0 0 0 0 0 0 0 0 0 0 0 0 0 0 0.1 0"/>
<feBlend mode="normal" in2="BackgroundImageFix" result="effect1_dropShadow_1196_3009"/>
<feBlend mode="normal" in="SourceGraphic" in2="effect1_dropShadow_1196_3009" result="shape"/>
</filter>
</defs>
</svg>
