<svg width="96" height="96" viewBox="0 0 96 96" fill="none" xmlns="http://www.w3.org/2000/svg">
<g filter="url(#filter0_d_879_6536)">
<circle cx="48" cy="44" r="44" fill="#F4F4F4"/>
<path d="M32.3333 34.9874C32.3333 26.3077 38.826 19.3333 47.9999 19.3333C57.3365 19.3333 63.6666 25.4997 63.6666 32.2222C63.6666 35.2496 61.2124 37.7037 58.1851 37.7037H56.542C55.6319 37.7037 55.1125 38.7426 55.6585 39.4707C57.0708 41.3538 57.6484 43.6412 57.3528 45.5964C57.0626 47.516 55.9422 49.1129 53.8787 49.8176C52.3817 50.3288 50.7301 50.6667 48.9803 50.6667C38.7342 50.6667 32.3333 43.6328 32.3333 34.9874Z" stroke="#191919" stroke-width="2"/>
<circle cx="40.5" cy="30" r="1.5" stroke="#191919" stroke-width="2"/>
<circle cx="40.5" cy="39.1667" r="1.5" stroke="#191919" stroke-width="2"/>
<circle cx="48.8333" cy="44.1667" r="1.5" stroke="#191919" stroke-width="2"/>
<circle cx="48.8333" cy="25.8333" r="1.5" stroke="#191919" stroke-width="2"/>
<circle cx="55.5" cy="30.8333" r="1.5" stroke="#191919" stroke-width="2"/>
<path d="M39.1184 66.2461V66.9844H38.052V69.6797C38.5852 69.6445 39.1125 69.5977 39.6105 69.5391L39.6574 70.2305C37.5422 70.5469 35.1047 70.5762 33.3059 70.5703L33.2004 69.8086C33.6223 69.8086 34.0734 69.8086 34.548 69.8027V66.9844H33.4934V66.2461H39.1184ZM34.6652 72.1875V71.4492H41.3098V73.9336H35.591V75.082H41.6965V75.832H34.6887V73.2305H40.3957V72.1875H34.6652ZM35.4504 69.791C36.007 69.7793 36.5754 69.7617 37.1496 69.7324V66.9844H35.4504V69.791ZM40.3957 70.9453V65.5312H41.3098V67.8281H42.8801V68.6016H41.3098V70.9453H40.3957ZM47.3027 66.6914V70.2891H44.4785V72.6094C45.6797 72.5977 46.8164 72.5625 48.2051 72.3164L48.2754 73.0781C46.793 73.3418 45.5977 73.377 44.2793 73.3828H43.5879V69.5273H46.4238V67.4531H43.5645V66.6914H47.3027ZM47.8066 70.043V69.293H49.1426V65.7891H50.0098V75.3984H49.1426V70.043H47.8066ZM51.2637 75.9492V65.5312H52.1426V75.9492H51.2637ZM61.7449 71.168V71.918H54.5379V66.4336H61.6277V67.207H55.4754V68.7539H61.4051V69.4922H55.4754V71.168H61.7449ZM53.3074 74.5898V73.8281H62.8465V74.5898H53.3074Z" fill="#191919"/>
</g>
<defs>
<filter id="filter0_d_879_6536" x="0" y="0" width="96" height="96" filterUnits="userSpaceOnUse" color-interpolation-filters="sRGB">
<feFlood flood-opacity="0" result="BackgroundImageFix"/>
<feColorMatrix in="SourceAlpha" type="matrix" values="0 0 0 0 0 0 0 0 0 0 0 0 0 0 0 0 0 0 127 0" result="hardAlpha"/>
<feOffset dy="4"/>
<feGaussianBlur stdDeviation="2"/>
<feComposite in2="hardAlpha" operator="out"/>
<feColorMatrix type="matrix" values="0 0 0 0 0 0 0 0 0 0 0 0 0 0 0 0 0 0 0.1 0"/>
<feBlend mode="normal" in2="BackgroundImageFix" result="effect1_dropShadow_879_6536"/>
<feBlend mode="normal" in="SourceGraphic" in2="effect1_dropShadow_879_6536" result="shape"/>
</filter>
</defs>
</svg>
