<svg width="96" height="96" viewBox="0 0 96 96" fill="none" xmlns="http://www.w3.org/2000/svg">
<g filter="url(#filter0_d_879_6534)">
<circle cx="48" cy="44" r="44" fill="#F4F4F4"/>
<path d="M40.4999 26.9677H41.4999V25.9677V24.6667C41.4999 23.5621 42.3953 22.6667 43.4999 22.6667H52.4999C53.6045 22.6667 54.4999 23.5621 54.4999 24.6667V25.9677V26.9677H55.4999H61.6666C62.7712 26.9677 63.6666 27.8632 63.6666 28.9677V45.3333C63.6666 46.4379 62.7712 47.3333 61.6666 47.3333H34.3333C33.2287 47.3333 32.3333 46.4379 32.3333 45.3333V28.9677C32.3333 27.8632 33.2287 26.9677 34.3333 26.9677H40.4999Z" stroke="#191919" stroke-width="2" stroke-linecap="round"/>
<circle cx="47.9999" cy="36.6667" r="5.66667" stroke="#191919" stroke-width="2"/>
<path d="M38.5676 66.6211C38.5617 69.627 37.5363 72.3809 33.7863 74.2266L33.2707 73.5234C35.2277 72.5684 36.4055 71.3613 37.0383 69.9609L33.4699 70.3008L33.3176 69.4922L37.3195 69.2227C37.507 68.6367 37.6125 68.0215 37.6535 67.3828H33.8449V66.6211H38.5676ZM40.3137 75.9492V65.5312H41.2277V69.7734H42.9152V70.5469H41.2277V75.9492H40.3137ZM47.6074 66.75V69.4688H49.1895V65.7539H50.0684V75.4219H49.1895V70.2305H47.6074V73.1484H43.623V66.75H47.6074ZM44.4902 72.4102H46.7402V67.4883H44.4902V72.4102ZM51.2754 75.9492V65.5312H52.166V75.9492H51.2754ZM61.3699 65.5312V69.6797H63.116V70.4531H61.3699V75.9727H60.4559V65.5312H61.3699ZM53.7176 67.2656V66.5039H58.452V70.2305H54.6551V72.668C56.5887 72.6738 57.9422 72.5977 59.5184 72.3047L59.6121 73.0664C57.9715 73.3652 56.5828 73.4414 54.573 73.4531H53.741V69.4688H57.5379V67.2656H53.7176Z" fill="#191919"/>
</g>
<defs>
<filter id="filter0_d_879_6534" x="0" y="0" width="96" height="96" filterUnits="userSpaceOnUse" color-interpolation-filters="sRGB">
<feFlood flood-opacity="0" result="BackgroundImageFix"/>
<feColorMatrix in="SourceAlpha" type="matrix" values="0 0 0 0 0 0 0 0 0 0 0 0 0 0 0 0 0 0 127 0" result="hardAlpha"/>
<feOffset dy="4"/>
<feGaussianBlur stdDeviation="2"/>
<feComposite in2="hardAlpha" operator="out"/>
<feColorMatrix type="matrix" values="0 0 0 0 0 0 0 0 0 0 0 0 0 0 0 0 0 0 0.1 0"/>
<feBlend mode="normal" in2="BackgroundImageFix" result="effect1_dropShadow_879_6534"/>
<feBlend mode="normal" in="SourceGraphic" in2="effect1_dropShadow_879_6534" result="shape"/>
</filter>
</defs>
</svg>
